<mxfile host="app.diagrams.net" modified="2024-03-15T12:13:04.776Z" agent="Mozilla/5.0 (Windows NT 10.0; Win64; x64) AppleWebKit/537.36 (KHTML, like Gecko) Chrome/121.0.0.0 Safari/537.36 OPR/107.0.0.0" etag="4jhZADLzRZ59ZpS91O26" version="24.0.5" type="github">
  <diagram name="Página-1" id="F4OI45L5ZF--xjmJNOsB">
    <mxGraphModel dx="1286" dy="865" grid="1" gridSize="10" guides="1" tooltips="1" connect="1" arrows="1" fold="1" page="1" pageScale="1" pageWidth="827" pageHeight="1169" math="0" shadow="0">
      <root>
        <mxCell id="0" />
        <mxCell id="1" parent="0" />
        <mxCell id="vNvaez6aWm7bu26Z4hqa-1" value="Transportadora" style="whiteSpace=wrap;html=1;align=center;" vertex="1" parent="1">
          <mxGeometry x="255" y="315" width="100" height="40" as="geometry" />
        </mxCell>
        <mxCell id="vNvaez6aWm7bu26Z4hqa-2" value="CNPJ" style="ellipse;whiteSpace=wrap;html=1;align=center;fontStyle=4;" vertex="1" parent="1">
          <mxGeometry x="195" y="245" width="100" height="40" as="geometry" />
        </mxCell>
        <mxCell id="vNvaez6aWm7bu26Z4hqa-3" value="Nome" style="ellipse;whiteSpace=wrap;html=1;align=center;" vertex="1" parent="1">
          <mxGeometry x="325" y="245" width="100" height="40" as="geometry" />
        </mxCell>
        <mxCell id="vNvaez6aWm7bu26Z4hqa-4" value="" style="endArrow=none;html=1;rounded=0;exitX=0.25;exitY=0;exitDx=0;exitDy=0;entryX=0.5;entryY=1;entryDx=0;entryDy=0;" edge="1" parent="1" source="vNvaez6aWm7bu26Z4hqa-1" target="vNvaez6aWm7bu26Z4hqa-2">
          <mxGeometry relative="1" as="geometry">
            <mxPoint x="385" y="375" as="sourcePoint" />
            <mxPoint x="545" y="375" as="targetPoint" />
          </mxGeometry>
        </mxCell>
        <mxCell id="vNvaez6aWm7bu26Z4hqa-5" value="" style="endArrow=none;html=1;rounded=0;" edge="1" parent="1" target="vNvaez6aWm7bu26Z4hqa-3">
          <mxGeometry relative="1" as="geometry">
            <mxPoint x="305" y="315" as="sourcePoint" />
            <mxPoint x="255" y="295" as="targetPoint" />
          </mxGeometry>
        </mxCell>
        <mxCell id="vNvaez6aWm7bu26Z4hqa-6" value="Possui" style="shape=rhombus;perimeter=rhombusPerimeter;whiteSpace=wrap;html=1;align=center;" vertex="1" parent="1">
          <mxGeometry x="570" y="305" width="120" height="60" as="geometry" />
        </mxCell>
        <mxCell id="vNvaez6aWm7bu26Z4hqa-7" value="Ônibus" style="whiteSpace=wrap;html=1;align=center;" vertex="1" parent="1">
          <mxGeometry x="1010" y="320" width="100" height="40" as="geometry" />
        </mxCell>
        <mxCell id="vNvaez6aWm7bu26Z4hqa-8" value="Placa" style="ellipse;whiteSpace=wrap;html=1;align=center;" vertex="1" parent="1">
          <mxGeometry x="910" y="230" width="100" height="40" as="geometry" />
        </mxCell>
        <mxCell id="vNvaez6aWm7bu26Z4hqa-9" value="Modelo" style="ellipse;whiteSpace=wrap;html=1;align=center;" vertex="1" parent="1">
          <mxGeometry x="1010" y="200" width="100" height="40" as="geometry" />
        </mxCell>
        <mxCell id="vNvaez6aWm7bu26Z4hqa-10" value="Ano_fabricação" style="ellipse;whiteSpace=wrap;html=1;align=center;" vertex="1" parent="1">
          <mxGeometry x="1110" y="230" width="100" height="40" as="geometry" />
        </mxCell>
        <mxCell id="vNvaez6aWm7bu26Z4hqa-11" value="Capacidade" style="ellipse;whiteSpace=wrap;html=1;align=center;" vertex="1" parent="1">
          <mxGeometry x="1120" y="280" width="100" height="40" as="geometry" />
        </mxCell>
        <mxCell id="vNvaez6aWm7bu26Z4hqa-12" value="Chassi" style="ellipse;whiteSpace=wrap;html=1;align=center;fontStyle=4;" vertex="1" parent="1">
          <mxGeometry x="910" y="280" width="100" height="40" as="geometry" />
        </mxCell>
        <mxCell id="vNvaez6aWm7bu26Z4hqa-13" value="" style="endArrow=none;html=1;rounded=0;exitX=1;exitY=0.5;exitDx=0;exitDy=0;entryX=0;entryY=0.5;entryDx=0;entryDy=0;" edge="1" parent="1" source="vNvaez6aWm7bu26Z4hqa-1" target="vNvaez6aWm7bu26Z4hqa-6">
          <mxGeometry relative="1" as="geometry">
            <mxPoint x="740" y="520" as="sourcePoint" />
            <mxPoint x="900" y="520" as="targetPoint" />
          </mxGeometry>
        </mxCell>
        <mxCell id="vNvaez6aWm7bu26Z4hqa-14" value="" style="endArrow=none;html=1;rounded=0;exitX=1;exitY=0.5;exitDx=0;exitDy=0;entryX=0;entryY=0.5;entryDx=0;entryDy=0;" edge="1" parent="1" source="vNvaez6aWm7bu26Z4hqa-6">
          <mxGeometry relative="1" as="geometry">
            <mxPoint x="870" y="339.38" as="sourcePoint" />
            <mxPoint x="1010" y="339.38" as="targetPoint" />
          </mxGeometry>
        </mxCell>
        <mxCell id="vNvaez6aWm7bu26Z4hqa-15" value="" style="endArrow=none;html=1;rounded=0;exitX=1;exitY=0.5;exitDx=0;exitDy=0;entryX=0;entryY=0.5;entryDx=0;entryDy=0;" edge="1" parent="1" source="vNvaez6aWm7bu26Z4hqa-12">
          <mxGeometry relative="1" as="geometry">
            <mxPoint x="880" y="318.75" as="sourcePoint" />
            <mxPoint x="1020" y="318.75" as="targetPoint" />
          </mxGeometry>
        </mxCell>
        <mxCell id="vNvaez6aWm7bu26Z4hqa-16" value="" style="endArrow=none;html=1;rounded=0;entryX=1;entryY=0.5;entryDx=0;entryDy=0;exitX=0.25;exitY=0;exitDx=0;exitDy=0;" edge="1" parent="1" source="vNvaez6aWm7bu26Z4hqa-7" target="vNvaez6aWm7bu26Z4hqa-8">
          <mxGeometry relative="1" as="geometry">
            <mxPoint x="570" y="330" as="sourcePoint" />
            <mxPoint x="616" y="297" as="targetPoint" />
          </mxGeometry>
        </mxCell>
        <mxCell id="vNvaez6aWm7bu26Z4hqa-17" value="" style="endArrow=none;html=1;rounded=0;entryX=0.5;entryY=1;entryDx=0;entryDy=0;exitX=0.5;exitY=0;exitDx=0;exitDy=0;" edge="1" parent="1" source="vNvaez6aWm7bu26Z4hqa-7" target="vNvaez6aWm7bu26Z4hqa-9">
          <mxGeometry relative="1" as="geometry">
            <mxPoint x="1045" y="330" as="sourcePoint" />
            <mxPoint x="1020" y="260" as="targetPoint" />
          </mxGeometry>
        </mxCell>
        <mxCell id="vNvaez6aWm7bu26Z4hqa-18" value="" style="endArrow=none;html=1;rounded=0;entryX=0;entryY=0.5;entryDx=0;entryDy=0;" edge="1" parent="1" target="vNvaez6aWm7bu26Z4hqa-10">
          <mxGeometry relative="1" as="geometry">
            <mxPoint x="1080" y="320" as="sourcePoint" />
            <mxPoint x="1070" y="250" as="targetPoint" />
          </mxGeometry>
        </mxCell>
        <mxCell id="vNvaez6aWm7bu26Z4hqa-19" value="" style="endArrow=none;html=1;rounded=0;entryX=0;entryY=0.5;entryDx=0;entryDy=0;exitX=1;exitY=0;exitDx=0;exitDy=0;" edge="1" parent="1" source="vNvaez6aWm7bu26Z4hqa-7" target="vNvaez6aWm7bu26Z4hqa-11">
          <mxGeometry relative="1" as="geometry">
            <mxPoint x="1080" y="340" as="sourcePoint" />
            <mxPoint x="1080" y="260" as="targetPoint" />
          </mxGeometry>
        </mxCell>
        <mxCell id="vNvaez6aWm7bu26Z4hqa-20" value="Funcionário" style="whiteSpace=wrap;html=1;align=center;" vertex="1" parent="1">
          <mxGeometry x="260" y="819" width="100" height="40" as="geometry" />
        </mxCell>
        <mxCell id="vNvaez6aWm7bu26Z4hqa-21" value="Nome" style="ellipse;whiteSpace=wrap;html=1;align=center;" vertex="1" parent="1">
          <mxGeometry x="380" y="949" width="100" height="40" as="geometry" />
        </mxCell>
        <mxCell id="vNvaez6aWm7bu26Z4hqa-22" value="CPF" style="ellipse;whiteSpace=wrap;html=1;align=center;fontStyle=4;" vertex="1" parent="1">
          <mxGeometry x="170" y="949" width="100" height="40" as="geometry" />
        </mxCell>
        <mxCell id="vNvaez6aWm7bu26Z4hqa-23" value="" style="endArrow=none;html=1;rounded=0;entryX=0.5;entryY=0;entryDx=0;entryDy=0;exitX=1;exitY=1;exitDx=0;exitDy=0;" edge="1" parent="1" source="vNvaez6aWm7bu26Z4hqa-20" target="vNvaez6aWm7bu26Z4hqa-21">
          <mxGeometry relative="1" as="geometry">
            <mxPoint x="572" y="604" as="sourcePoint" />
            <mxPoint x="618" y="571" as="targetPoint" />
          </mxGeometry>
        </mxCell>
        <mxCell id="vNvaez6aWm7bu26Z4hqa-24" value="" style="endArrow=none;html=1;rounded=0;exitX=0;exitY=1;exitDx=0;exitDy=0;" edge="1" parent="1" source="vNvaez6aWm7bu26Z4hqa-20">
          <mxGeometry relative="1" as="geometry">
            <mxPoint x="597" y="824" as="sourcePoint" />
            <mxPoint x="220" y="950" as="targetPoint" />
          </mxGeometry>
        </mxCell>
        <mxCell id="vNvaez6aWm7bu26Z4hqa-25" value="" style="shape=link;html=1;rounded=0;exitX=1;exitY=0.5;exitDx=0;exitDy=0;" edge="1" parent="1" source="vNvaez6aWm7bu26Z4hqa-20">
          <mxGeometry relative="1" as="geometry">
            <mxPoint x="532" y="954" as="sourcePoint" />
            <mxPoint x="732" y="834" as="targetPoint" />
          </mxGeometry>
        </mxCell>
        <mxCell id="vNvaez6aWm7bu26Z4hqa-26" value="Motorista" style="whiteSpace=wrap;html=1;align=center;" vertex="1" parent="1">
          <mxGeometry x="812" y="724" width="100" height="40" as="geometry" />
        </mxCell>
        <mxCell id="vNvaez6aWm7bu26Z4hqa-27" value="" style="ellipse;whiteSpace=wrap;html=1;aspect=fixed;" vertex="1" parent="1">
          <mxGeometry x="732" y="809" width="50" height="50" as="geometry" />
        </mxCell>
        <mxCell id="vNvaez6aWm7bu26Z4hqa-28" value="&lt;font style=&quot;font-size: 18px;&quot;&gt;d&lt;/font&gt;" style="text;html=1;align=center;verticalAlign=middle;whiteSpace=wrap;rounded=0;" vertex="1" parent="1">
          <mxGeometry x="727" y="809" width="60" height="50" as="geometry" />
        </mxCell>
        <mxCell id="vNvaez6aWm7bu26Z4hqa-29" value="Cobrador" style="whiteSpace=wrap;html=1;align=center;" vertex="1" parent="1">
          <mxGeometry x="922" y="799" width="100" height="40" as="geometry" />
        </mxCell>
        <mxCell id="vNvaez6aWm7bu26Z4hqa-30" value="Mecânico" style="whiteSpace=wrap;html=1;align=center;" vertex="1" parent="1">
          <mxGeometry x="460" y="594" width="100" height="40" as="geometry" />
        </mxCell>
        <mxCell id="vNvaez6aWm7bu26Z4hqa-31" value="Funcionário_&lt;br&gt;administrativo" style="whiteSpace=wrap;html=1;align=center;" vertex="1" parent="1">
          <mxGeometry x="862" y="880" width="100" height="40" as="geometry" />
        </mxCell>
        <mxCell id="vNvaez6aWm7bu26Z4hqa-32" value="" style="shape=requiredInterface;html=1;verticalLabelPosition=bottom;sketch=0;rotation=-130;direction=south;" vertex="1" parent="1">
          <mxGeometry x="782" y="774" width="20" height="10" as="geometry" />
        </mxCell>
        <mxCell id="vNvaez6aWm7bu26Z4hqa-33" value="" style="endArrow=none;html=1;rounded=0;entryX=0;entryY=1;entryDx=0;entryDy=0;exitX=0.5;exitY=0;exitDx=0;exitDy=0;" edge="1" parent="1" source="vNvaez6aWm7bu26Z4hqa-28" target="vNvaez6aWm7bu26Z4hqa-26">
          <mxGeometry relative="1" as="geometry">
            <mxPoint x="522" y="824" as="sourcePoint" />
            <mxPoint x="471" y="773" as="targetPoint" />
          </mxGeometry>
        </mxCell>
        <mxCell id="vNvaez6aWm7bu26Z4hqa-34" value="" style="endArrow=none;html=1;rounded=0;entryX=0.009;entryY=0.377;entryDx=0;entryDy=0;entryPerimeter=0;" edge="1" parent="1" target="vNvaez6aWm7bu26Z4hqa-29">
          <mxGeometry relative="1" as="geometry">
            <mxPoint x="782" y="824" as="sourcePoint" />
            <mxPoint x="922" y="794" as="targetPoint" />
          </mxGeometry>
        </mxCell>
        <mxCell id="vNvaez6aWm7bu26Z4hqa-35" value="" style="shape=requiredInterface;html=1;verticalLabelPosition=bottom;sketch=0;rotation=-105;direction=south;" vertex="1" parent="1">
          <mxGeometry x="857" y="813" width="20" height="10" as="geometry" />
        </mxCell>
        <mxCell id="vNvaez6aWm7bu26Z4hqa-36" value="" style="endArrow=none;html=1;rounded=0;entryX=0.5;entryY=1;entryDx=0;entryDy=0;" edge="1" parent="1" target="vNvaez6aWm7bu26Z4hqa-30">
          <mxGeometry relative="1" as="geometry">
            <mxPoint x="739" y="817.7085020242914" as="sourcePoint" />
            <mxPoint x="522" y="642" as="targetPoint" />
          </mxGeometry>
        </mxCell>
        <mxCell id="vNvaez6aWm7bu26Z4hqa-37" value="" style="endArrow=none;html=1;rounded=0;entryX=0;entryY=0;entryDx=0;entryDy=0;exitX=0.75;exitY=1;exitDx=0;exitDy=0;" edge="1" parent="1" target="vNvaez6aWm7bu26Z4hqa-31">
          <mxGeometry relative="1" as="geometry">
            <mxPoint x="769" y="856.0000000000001" as="sourcePoint" />
            <mxPoint x="786.5" y="878.6698729810777" as="targetPoint" />
          </mxGeometry>
        </mxCell>
        <mxCell id="vNvaez6aWm7bu26Z4hqa-38" value="" style="shape=requiredInterface;html=1;verticalLabelPosition=bottom;sketch=0;rotation=-60;direction=south;" vertex="1" parent="1">
          <mxGeometry x="809" y="865" width="20" height="10" as="geometry" />
        </mxCell>
        <mxCell id="vNvaez6aWm7bu26Z4hqa-39" value="Número_armário" style="ellipse;whiteSpace=wrap;html=1;align=center;" vertex="1" parent="1">
          <mxGeometry x="450" y="480" width="100" height="40" as="geometry" />
        </mxCell>
        <mxCell id="vNvaez6aWm7bu26Z4hqa-40" value="" style="endArrow=none;html=1;rounded=0;entryX=0.5;entryY=1;entryDx=0;entryDy=0;exitX=0.5;exitY=0;exitDx=0;exitDy=0;" edge="1" parent="1" source="vNvaez6aWm7bu26Z4hqa-30" target="vNvaez6aWm7bu26Z4hqa-39">
          <mxGeometry relative="1" as="geometry">
            <mxPoint x="1022" y="864" as="sourcePoint" />
            <mxPoint x="1072" y="864" as="targetPoint" />
          </mxGeometry>
        </mxCell>
        <mxCell id="vNvaez6aWm7bu26Z4hqa-41" value="Data_contratação" style="ellipse;whiteSpace=wrap;html=1;align=center;" vertex="1" parent="1">
          <mxGeometry x="810" y="960" width="100" height="40" as="geometry" />
        </mxCell>
        <mxCell id="vNvaez6aWm7bu26Z4hqa-42" value="Tempo_de_&lt;br&gt;empresa" style="ellipse;whiteSpace=wrap;html=1;align=center;dashed=1;" vertex="1" parent="1">
          <mxGeometry x="940" y="960" width="100" height="40" as="geometry" />
        </mxCell>
        <mxCell id="vNvaez6aWm7bu26Z4hqa-43" value="" style="endArrow=none;html=1;rounded=0;" edge="1" parent="1" source="vNvaez6aWm7bu26Z4hqa-41">
          <mxGeometry relative="1" as="geometry">
            <mxPoint x="710" y="920" as="sourcePoint" />
            <mxPoint x="870" y="920" as="targetPoint" />
          </mxGeometry>
        </mxCell>
        <mxCell id="vNvaez6aWm7bu26Z4hqa-44" value="" style="endArrow=none;html=1;rounded=0;entryX=0.5;entryY=1;entryDx=0;entryDy=0;exitX=0;exitY=0;exitDx=0;exitDy=0;" edge="1" parent="1" source="vNvaez6aWm7bu26Z4hqa-42" target="vNvaez6aWm7bu26Z4hqa-31">
          <mxGeometry relative="1" as="geometry">
            <mxPoint x="873" y="970" as="sourcePoint" />
            <mxPoint x="880" y="930" as="targetPoint" />
          </mxGeometry>
        </mxCell>
        <mxCell id="vNvaez6aWm7bu26Z4hqa-45" value="CNH" style="ellipse;whiteSpace=wrap;html=1;align=center;" vertex="1" parent="1">
          <mxGeometry x="680" y="694" width="100" height="40" as="geometry" />
        </mxCell>
        <mxCell id="vNvaez6aWm7bu26Z4hqa-46" value="Data_obtenção" style="ellipse;whiteSpace=wrap;html=1;align=center;" vertex="1" parent="1">
          <mxGeometry x="580" y="634" width="100" height="40" as="geometry" />
        </mxCell>
        <mxCell id="vNvaez6aWm7bu26Z4hqa-47" value="Validade" style="ellipse;whiteSpace=wrap;html=1;align=center;" vertex="1" parent="1">
          <mxGeometry x="687" y="634" width="100" height="40" as="geometry" />
        </mxCell>
        <mxCell id="vNvaez6aWm7bu26Z4hqa-48" value="" style="endArrow=none;html=1;rounded=0;entryX=0;entryY=0;entryDx=0;entryDy=0;exitX=0.5;exitY=1;exitDx=0;exitDy=0;" edge="1" parent="1" source="vNvaez6aWm7bu26Z4hqa-46" target="vNvaez6aWm7bu26Z4hqa-45">
          <mxGeometry relative="1" as="geometry">
            <mxPoint x="612" y="673.44" as="sourcePoint" />
            <mxPoint x="670" y="673.44" as="targetPoint" />
          </mxGeometry>
        </mxCell>
        <mxCell id="vNvaez6aWm7bu26Z4hqa-49" value="" style="endArrow=none;html=1;rounded=0;entryX=0.5;entryY=0;entryDx=0;entryDy=0;exitX=0.5;exitY=1;exitDx=0;exitDy=0;" edge="1" parent="1" source="vNvaez6aWm7bu26Z4hqa-47" target="vNvaez6aWm7bu26Z4hqa-45">
          <mxGeometry relative="1" as="geometry">
            <mxPoint x="692" y="654" as="sourcePoint" />
            <mxPoint x="725" y="670" as="targetPoint" />
          </mxGeometry>
        </mxCell>
        <mxCell id="vNvaez6aWm7bu26Z4hqa-50" value="" style="endArrow=none;html=1;rounded=0;entryX=0;entryY=0;entryDx=0;entryDy=0;exitX=1;exitY=0.5;exitDx=0;exitDy=0;" edge="1" parent="1" source="vNvaez6aWm7bu26Z4hqa-45" target="vNvaez6aWm7bu26Z4hqa-26">
          <mxGeometry relative="1" as="geometry">
            <mxPoint x="760" y="694" as="sourcePoint" />
            <mxPoint x="735" y="680" as="targetPoint" />
          </mxGeometry>
        </mxCell>
        <mxCell id="vNvaez6aWm7bu26Z4hqa-51" value="Categoria" style="ellipse;whiteSpace=wrap;html=1;align=center;" vertex="1" parent="1">
          <mxGeometry x="794" y="644" width="100" height="40" as="geometry" />
        </mxCell>
        <mxCell id="vNvaez6aWm7bu26Z4hqa-52" value="" style="endArrow=none;html=1;rounded=0;entryX=1;entryY=0;entryDx=0;entryDy=0;exitX=0;exitY=1;exitDx=0;exitDy=0;" edge="1" parent="1" source="vNvaez6aWm7bu26Z4hqa-51" target="vNvaez6aWm7bu26Z4hqa-45">
          <mxGeometry relative="1" as="geometry">
            <mxPoint x="747" y="684" as="sourcePoint" />
            <mxPoint x="740" y="704" as="targetPoint" />
          </mxGeometry>
        </mxCell>
        <mxCell id="vNvaez6aWm7bu26Z4hqa-53" value="Viagens_mês" style="ellipse;whiteSpace=wrap;html=1;align=center;" vertex="1" parent="1">
          <mxGeometry x="1120" y="744" width="100" height="40" as="geometry" />
        </mxCell>
        <mxCell id="vNvaez6aWm7bu26Z4hqa-54" value="Número_armário" style="ellipse;whiteSpace=wrap;html=1;align=center;" vertex="1" parent="1">
          <mxGeometry x="1120" y="809" width="100" height="40" as="geometry" />
        </mxCell>
        <mxCell id="vNvaez6aWm7bu26Z4hqa-55" value="" style="endArrow=none;html=1;rounded=0;entryX=0;entryY=0.5;entryDx=0;entryDy=0;exitX=1;exitY=0;exitDx=0;exitDy=0;" edge="1" parent="1" source="vNvaez6aWm7bu26Z4hqa-29" target="vNvaez6aWm7bu26Z4hqa-53">
          <mxGeometry relative="1" as="geometry">
            <mxPoint x="1022" y="754" as="sourcePoint" />
            <mxPoint x="1080" y="754" as="targetPoint" />
          </mxGeometry>
        </mxCell>
        <mxCell id="vNvaez6aWm7bu26Z4hqa-56" value="" style="endArrow=none;html=1;rounded=0;entryX=0;entryY=0.5;entryDx=0;entryDy=0;exitX=1;exitY=0.5;exitDx=0;exitDy=0;" edge="1" parent="1" source="vNvaez6aWm7bu26Z4hqa-29" target="vNvaez6aWm7bu26Z4hqa-54">
          <mxGeometry relative="1" as="geometry">
            <mxPoint x="1040" y="793.44" as="sourcePoint" />
            <mxPoint x="1098" y="793.44" as="targetPoint" />
          </mxGeometry>
        </mxCell>
        <mxCell id="vNvaez6aWm7bu26Z4hqa-57" value="VIagem" style="whiteSpace=wrap;html=1;align=center;" vertex="1" parent="1">
          <mxGeometry x="1011" y="466" width="100" height="40" as="geometry" />
        </mxCell>
        <mxCell id="vNvaez6aWm7bu26Z4hqa-58" value="Realizada" style="shape=rhombus;perimeter=rhombusPerimeter;whiteSpace=wrap;html=1;align=center;" vertex="1" parent="1">
          <mxGeometry x="1000" y="380" width="120" height="60" as="geometry" />
        </mxCell>
        <mxCell id="vNvaez6aWm7bu26Z4hqa-59" value="Dirige" style="shape=rhombus;perimeter=rhombusPerimeter;whiteSpace=wrap;html=1;align=center;" vertex="1" parent="1">
          <mxGeometry x="920" y="644" width="120" height="60" as="geometry" />
        </mxCell>
        <mxCell id="vNvaez6aWm7bu26Z4hqa-60" value="Cobra" style="shape=rhombus;perimeter=rhombusPerimeter;whiteSpace=wrap;html=1;align=center;" vertex="1" parent="1">
          <mxGeometry x="1000" y="684" width="120" height="60" as="geometry" />
        </mxCell>
        <mxCell id="vNvaez6aWm7bu26Z4hqa-61" value="" style="endArrow=none;html=1;rounded=0;entryX=0.5;entryY=1;entryDx=0;entryDy=0;exitX=0.5;exitY=0;exitDx=0;exitDy=0;" edge="1" parent="1" source="vNvaez6aWm7bu26Z4hqa-58" target="vNvaez6aWm7bu26Z4hqa-7">
          <mxGeometry relative="1" as="geometry">
            <mxPoint x="1070" y="330" as="sourcePoint" />
            <mxPoint x="1070" y="250" as="targetPoint" />
          </mxGeometry>
        </mxCell>
        <mxCell id="vNvaez6aWm7bu26Z4hqa-62" value="" style="endArrow=none;html=1;rounded=0;entryX=0;entryY=1;entryDx=0;entryDy=0;exitX=1;exitY=0;exitDx=0;exitDy=0;" edge="1" parent="1" source="vNvaez6aWm7bu26Z4hqa-26" target="vNvaez6aWm7bu26Z4hqa-59">
          <mxGeometry relative="1" as="geometry">
            <mxPoint x="930" y="614" as="sourcePoint" />
            <mxPoint x="930" y="534" as="targetPoint" />
          </mxGeometry>
        </mxCell>
        <mxCell id="vNvaez6aWm7bu26Z4hqa-63" value="" style="endArrow=none;html=1;rounded=0;entryX=0.25;entryY=1;entryDx=0;entryDy=0;exitX=1;exitY=0;exitDx=0;exitDy=0;" edge="1" parent="1" source="vNvaez6aWm7bu26Z4hqa-59" target="vNvaez6aWm7bu26Z4hqa-57">
          <mxGeometry relative="1" as="geometry">
            <mxPoint x="922" y="734" as="sourcePoint" />
            <mxPoint x="1036" y="610" as="targetPoint" />
          </mxGeometry>
        </mxCell>
        <mxCell id="vNvaez6aWm7bu26Z4hqa-64" value="" style="endArrow=none;html=1;rounded=0;entryX=0;entryY=1;entryDx=0;entryDy=0;exitX=0.5;exitY=0;exitDx=0;exitDy=0;" edge="1" parent="1" source="vNvaez6aWm7bu26Z4hqa-29" target="vNvaez6aWm7bu26Z4hqa-60">
          <mxGeometry relative="1" as="geometry">
            <mxPoint x="922" y="734" as="sourcePoint" />
            <mxPoint x="960" y="699" as="targetPoint" />
          </mxGeometry>
        </mxCell>
        <mxCell id="vNvaez6aWm7bu26Z4hqa-65" value="" style="endArrow=none;html=1;rounded=0;entryX=0.5;entryY=1;entryDx=0;entryDy=0;exitX=0.5;exitY=0;exitDx=0;exitDy=0;" edge="1" parent="1" source="vNvaez6aWm7bu26Z4hqa-60" target="vNvaez6aWm7bu26Z4hqa-57">
          <mxGeometry relative="1" as="geometry">
            <mxPoint x="1009" y="662" as="sourcePoint" />
            <mxPoint x="1061" y="610" as="targetPoint" />
          </mxGeometry>
        </mxCell>
        <mxCell id="vNvaez6aWm7bu26Z4hqa-66" value="" style="endArrow=none;html=1;rounded=0;entryX=0.5;entryY=1;entryDx=0;entryDy=0;exitX=0.5;exitY=0;exitDx=0;exitDy=0;" edge="1" parent="1" source="vNvaez6aWm7bu26Z4hqa-57" target="vNvaez6aWm7bu26Z4hqa-58">
          <mxGeometry relative="1" as="geometry">
            <mxPoint x="1070" y="390" as="sourcePoint" />
            <mxPoint x="1070" y="370" as="targetPoint" />
          </mxGeometry>
        </mxCell>
        <mxCell id="vNvaez6aWm7bu26Z4hqa-67" value="Data_partida" style="ellipse;whiteSpace=wrap;html=1;align=center;" vertex="1" parent="1">
          <mxGeometry x="1150" y="370" width="100" height="40" as="geometry" />
        </mxCell>
        <mxCell id="vNvaez6aWm7bu26Z4hqa-68" value="Hora_partida" style="ellipse;whiteSpace=wrap;html=1;align=center;" vertex="1" parent="1">
          <mxGeometry x="1257" y="380" width="100" height="40" as="geometry" />
        </mxCell>
        <mxCell id="vNvaez6aWm7bu26Z4hqa-69" value="Data_chegada" style="ellipse;whiteSpace=wrap;html=1;align=center;" vertex="1" parent="1">
          <mxGeometry x="1340" y="420" width="100" height="40" as="geometry" />
        </mxCell>
        <mxCell id="vNvaez6aWm7bu26Z4hqa-70" value="Hora_chegada" style="ellipse;whiteSpace=wrap;html=1;align=center;" vertex="1" parent="1">
          <mxGeometry x="1350" y="480" width="100" height="40" as="geometry" />
        </mxCell>
        <mxCell id="vNvaez6aWm7bu26Z4hqa-71" value="Duração_viagem" style="ellipse;whiteSpace=wrap;html=1;align=center;dashed=1;" vertex="1" parent="1">
          <mxGeometry x="1330" y="530" width="100" height="40" as="geometry" />
        </mxCell>
        <mxCell id="vNvaez6aWm7bu26Z4hqa-72" value="Cidade_partida" style="ellipse;whiteSpace=wrap;html=1;align=center;" vertex="1" parent="1">
          <mxGeometry x="1330" y="580" width="100" height="40" as="geometry" />
        </mxCell>
        <mxCell id="vNvaez6aWm7bu26Z4hqa-73" value="CIdade_destino" style="ellipse;whiteSpace=wrap;html=1;align=center;" vertex="1" parent="1">
          <mxGeometry x="1280" y="630" width="100" height="40" as="geometry" />
        </mxCell>
        <mxCell id="vNvaez6aWm7bu26Z4hqa-74" value="Número_&lt;br&gt;passageiros" style="ellipse;whiteSpace=wrap;html=1;align=center;" vertex="1" parent="1">
          <mxGeometry x="1170" y="630" width="100" height="40" as="geometry" />
        </mxCell>
        <mxCell id="vNvaez6aWm7bu26Z4hqa-75" value="Id" style="ellipse;whiteSpace=wrap;html=1;align=center;fontStyle=4;" vertex="1" parent="1">
          <mxGeometry x="1090" y="590" width="100" height="40" as="geometry" />
        </mxCell>
        <mxCell id="vNvaez6aWm7bu26Z4hqa-76" value="" style="endArrow=none;html=1;rounded=0;entryX=0;entryY=1;entryDx=0;entryDy=0;exitX=1;exitY=0;exitDx=0;exitDy=0;" edge="1" parent="1" source="vNvaez6aWm7bu26Z4hqa-57" target="vNvaez6aWm7bu26Z4hqa-67">
          <mxGeometry relative="1" as="geometry">
            <mxPoint x="1071" y="476" as="sourcePoint" />
            <mxPoint x="1070" y="450" as="targetPoint" />
          </mxGeometry>
        </mxCell>
        <mxCell id="vNvaez6aWm7bu26Z4hqa-77" value="" style="endArrow=none;html=1;rounded=0;entryX=0;entryY=1;entryDx=0;entryDy=0;exitX=1;exitY=0;exitDx=0;exitDy=0;" edge="1" parent="1" source="vNvaez6aWm7bu26Z4hqa-57" target="vNvaez6aWm7bu26Z4hqa-68">
          <mxGeometry relative="1" as="geometry">
            <mxPoint x="1121" y="476" as="sourcePoint" />
            <mxPoint x="1175" y="414" as="targetPoint" />
          </mxGeometry>
        </mxCell>
        <mxCell id="vNvaez6aWm7bu26Z4hqa-78" value="" style="endArrow=none;html=1;rounded=0;exitX=1;exitY=0.25;exitDx=0;exitDy=0;" edge="1" parent="1" source="vNvaez6aWm7bu26Z4hqa-57" target="vNvaez6aWm7bu26Z4hqa-69">
          <mxGeometry relative="1" as="geometry">
            <mxPoint x="1121" y="476" as="sourcePoint" />
            <mxPoint x="1282" y="424" as="targetPoint" />
          </mxGeometry>
        </mxCell>
        <mxCell id="vNvaez6aWm7bu26Z4hqa-79" value="" style="endArrow=none;html=1;rounded=0;exitX=1;exitY=0.5;exitDx=0;exitDy=0;entryX=0;entryY=0.5;entryDx=0;entryDy=0;" edge="1" parent="1" source="vNvaez6aWm7bu26Z4hqa-57" target="vNvaez6aWm7bu26Z4hqa-70">
          <mxGeometry relative="1" as="geometry">
            <mxPoint x="1121" y="486" as="sourcePoint" />
            <mxPoint x="1352" y="456" as="targetPoint" />
          </mxGeometry>
        </mxCell>
        <mxCell id="vNvaez6aWm7bu26Z4hqa-80" value="" style="endArrow=none;html=1;rounded=0;exitX=1;exitY=0.5;exitDx=0;exitDy=0;entryX=0;entryY=0.5;entryDx=0;entryDy=0;" edge="1" parent="1" source="vNvaez6aWm7bu26Z4hqa-57" target="vNvaez6aWm7bu26Z4hqa-71">
          <mxGeometry relative="1" as="geometry">
            <mxPoint x="1121" y="496" as="sourcePoint" />
            <mxPoint x="1360" y="510" as="targetPoint" />
          </mxGeometry>
        </mxCell>
        <mxCell id="vNvaez6aWm7bu26Z4hqa-81" value="" style="endArrow=none;html=1;rounded=0;exitX=1;exitY=0.5;exitDx=0;exitDy=0;" edge="1" parent="1" source="vNvaez6aWm7bu26Z4hqa-57" target="vNvaez6aWm7bu26Z4hqa-72">
          <mxGeometry relative="1" as="geometry">
            <mxPoint x="1121" y="496" as="sourcePoint" />
            <mxPoint x="1340" y="560" as="targetPoint" />
          </mxGeometry>
        </mxCell>
        <mxCell id="vNvaez6aWm7bu26Z4hqa-82" value="" style="endArrow=none;html=1;rounded=0;exitX=1;exitY=0.5;exitDx=0;exitDy=0;entryX=0;entryY=0;entryDx=0;entryDy=0;" edge="1" parent="1" source="vNvaez6aWm7bu26Z4hqa-57" target="vNvaez6aWm7bu26Z4hqa-73">
          <mxGeometry relative="1" as="geometry">
            <mxPoint x="1121" y="496" as="sourcePoint" />
            <mxPoint x="1356" y="595" as="targetPoint" />
          </mxGeometry>
        </mxCell>
        <mxCell id="vNvaez6aWm7bu26Z4hqa-83" value="" style="endArrow=none;html=1;rounded=0;exitX=1;exitY=0.75;exitDx=0;exitDy=0;entryX=0.5;entryY=0;entryDx=0;entryDy=0;" edge="1" parent="1" source="vNvaez6aWm7bu26Z4hqa-57" target="vNvaez6aWm7bu26Z4hqa-74">
          <mxGeometry relative="1" as="geometry">
            <mxPoint x="1121" y="496" as="sourcePoint" />
            <mxPoint x="1305" y="646" as="targetPoint" />
          </mxGeometry>
        </mxCell>
        <mxCell id="vNvaez6aWm7bu26Z4hqa-84" value="" style="endArrow=none;html=1;rounded=0;exitX=1;exitY=1;exitDx=0;exitDy=0;entryX=0.5;entryY=0;entryDx=0;entryDy=0;" edge="1" parent="1" source="vNvaez6aWm7bu26Z4hqa-57" target="vNvaez6aWm7bu26Z4hqa-75">
          <mxGeometry relative="1" as="geometry">
            <mxPoint x="1121" y="506" as="sourcePoint" />
            <mxPoint x="1230" y="640" as="targetPoint" />
          </mxGeometry>
        </mxCell>
        <mxCell id="vNvaez6aWm7bu26Z4hqa-85" value="" style="shape=requiredInterface;html=1;verticalLabelPosition=bottom;sketch=0;rotation=-223;direction=south;" vertex="1" parent="1">
          <mxGeometry x="619" y="725" width="20" height="10" as="geometry" />
        </mxCell>
        <mxCell id="vNvaez6aWm7bu26Z4hqa-86" value="Mantém" style="shape=rhombus;perimeter=rhombusPerimeter;whiteSpace=wrap;html=1;align=center;" vertex="1" parent="1">
          <mxGeometry x="709" y="470" width="120" height="60" as="geometry" />
        </mxCell>
        <mxCell id="vNvaez6aWm7bu26Z4hqa-87" value="" style="endArrow=none;html=1;rounded=0;entryX=0;entryY=1;entryDx=0;entryDy=0;exitX=1;exitY=0;exitDx=0;exitDy=0;" edge="1" parent="1" source="vNvaez6aWm7bu26Z4hqa-86" target="vNvaez6aWm7bu26Z4hqa-7">
          <mxGeometry relative="1" as="geometry">
            <mxPoint x="1009" y="662" as="sourcePoint" />
            <mxPoint x="1046" y="516" as="targetPoint" />
          </mxGeometry>
        </mxCell>
        <mxCell id="vNvaez6aWm7bu26Z4hqa-88" value="" style="endArrow=none;html=1;rounded=0;entryX=0;entryY=1;entryDx=0;entryDy=0;exitX=1;exitY=0;exitDx=0;exitDy=0;" edge="1" parent="1" source="vNvaez6aWm7bu26Z4hqa-30" target="vNvaez6aWm7bu26Z4hqa-86">
          <mxGeometry relative="1" as="geometry">
            <mxPoint x="809" y="495" as="sourcePoint" />
            <mxPoint x="1020" y="370" as="targetPoint" />
          </mxGeometry>
        </mxCell>
        <mxCell id="vNvaez6aWm7bu26Z4hqa-89" value="Possui" style="shape=rhombus;perimeter=rhombusPerimeter;whiteSpace=wrap;html=1;align=center;" vertex="1" parent="1">
          <mxGeometry x="245" y="530" width="120" height="60" as="geometry" />
        </mxCell>
        <mxCell id="vNvaez6aWm7bu26Z4hqa-90" value="" style="endArrow=none;html=1;rounded=0;exitX=0.5;exitY=1;exitDx=0;exitDy=0;entryX=0.5;entryY=0;entryDx=0;entryDy=0;" edge="1" parent="1" source="vNvaez6aWm7bu26Z4hqa-1" target="vNvaez6aWm7bu26Z4hqa-89">
          <mxGeometry relative="1" as="geometry">
            <mxPoint x="365" y="345" as="sourcePoint" />
            <mxPoint x="580" y="345" as="targetPoint" />
          </mxGeometry>
        </mxCell>
        <mxCell id="vNvaez6aWm7bu26Z4hqa-91" value="" style="endArrow=none;html=1;rounded=0;exitX=0.5;exitY=0;exitDx=0;exitDy=0;entryX=0.5;entryY=1;entryDx=0;entryDy=0;" edge="1" parent="1" source="vNvaez6aWm7bu26Z4hqa-20" target="vNvaez6aWm7bu26Z4hqa-89">
          <mxGeometry relative="1" as="geometry">
            <mxPoint x="315" y="365" as="sourcePoint" />
            <mxPoint x="315" y="540" as="targetPoint" />
          </mxGeometry>
        </mxCell>
        <mxCell id="vNvaez6aWm7bu26Z4hqa-92" value="0,N" style="text;html=1;align=center;verticalAlign=middle;resizable=0;points=[];autosize=1;strokeColor=none;fillColor=none;" vertex="1" parent="1">
          <mxGeometry x="276" y="788" width="40" height="30" as="geometry" />
        </mxCell>
        <mxCell id="vNvaez6aWm7bu26Z4hqa-93" value="1,1" style="text;html=1;align=center;verticalAlign=middle;resizable=0;points=[];autosize=1;strokeColor=none;fillColor=none;" vertex="1" parent="1">
          <mxGeometry x="270" y="352" width="40" height="30" as="geometry" />
        </mxCell>
        <mxCell id="vNvaez6aWm7bu26Z4hqa-94" value="0,N" style="text;html=1;align=center;verticalAlign=middle;resizable=0;points=[];autosize=1;strokeColor=none;fillColor=none;" vertex="1" parent="1">
          <mxGeometry x="971" y="315" width="40" height="30" as="geometry" />
        </mxCell>
        <mxCell id="vNvaez6aWm7bu26Z4hqa-95" value="1,1" style="text;html=1;align=center;verticalAlign=middle;resizable=0;points=[];autosize=1;strokeColor=none;fillColor=none;" vertex="1" parent="1">
          <mxGeometry x="352" y="309" width="40" height="30" as="geometry" />
        </mxCell>
        <mxCell id="vNvaez6aWm7bu26Z4hqa-96" value="0,N" style="text;html=1;align=center;verticalAlign=middle;resizable=0;points=[];autosize=1;strokeColor=none;fillColor=none;" vertex="1" parent="1">
          <mxGeometry x="970" y="348" width="40" height="30" as="geometry" />
        </mxCell>
        <mxCell id="vNvaez6aWm7bu26Z4hqa-97" value="1,1" style="text;html=1;align=center;verticalAlign=middle;resizable=0;points=[];autosize=1;strokeColor=none;fillColor=none;" vertex="1" parent="1">
          <mxGeometry x="550" y="558" width="40" height="30" as="geometry" />
        </mxCell>
        <mxCell id="vNvaez6aWm7bu26Z4hqa-98" value="0,N" style="text;html=1;align=center;verticalAlign=middle;resizable=0;points=[];autosize=1;strokeColor=none;fillColor=none;" vertex="1" parent="1">
          <mxGeometry x="1030" y="438" width="40" height="30" as="geometry" />
        </mxCell>
        <mxCell id="vNvaez6aWm7bu26Z4hqa-99" value="1,1" style="text;html=1;align=center;verticalAlign=middle;resizable=0;points=[];autosize=1;strokeColor=none;fillColor=none;" vertex="1" parent="1">
          <mxGeometry x="1028" y="354" width="40" height="30" as="geometry" />
        </mxCell>
        <mxCell id="vNvaez6aWm7bu26Z4hqa-100" value="1,N" style="text;html=1;align=center;verticalAlign=middle;resizable=0;points=[];autosize=1;strokeColor=none;fillColor=none;" vertex="1" parent="1">
          <mxGeometry x="990" y="508" width="40" height="30" as="geometry" />
        </mxCell>
        <mxCell id="vNvaez6aWm7bu26Z4hqa-101" value="1,N" style="text;html=1;align=center;verticalAlign=middle;resizable=0;points=[];autosize=1;strokeColor=none;fillColor=none;" vertex="1" parent="1">
          <mxGeometry x="1030" y="508" width="40" height="30" as="geometry" />
        </mxCell>
        <mxCell id="vNvaez6aWm7bu26Z4hqa-102" value="1,1" style="text;html=1;align=center;verticalAlign=middle;resizable=0;points=[];autosize=1;strokeColor=none;fillColor=none;" vertex="1" parent="1">
          <mxGeometry x="880" y="698" width="40" height="30" as="geometry" />
        </mxCell>
        <mxCell id="vNvaez6aWm7bu26Z4hqa-103" value="1,1" style="text;html=1;align=center;verticalAlign=middle;resizable=0;points=[];autosize=1;strokeColor=none;fillColor=none;" vertex="1" parent="1">
          <mxGeometry x="946" y="776" width="40" height="30" as="geometry" />
        </mxCell>
      </root>
    </mxGraphModel>
  </diagram>
</mxfile>
